<svg version="1.1" xmlns="http://www.w3.org/2000/svg" viewBox="0 0 713.546875 468.9921875" width="713.546875" height="468.9921875">
  <!-- svg-source:excalidraw -->
  
  <defs>
    <style class="style-fonts">
      @font-face {
        font-family: "Virgil";
        src: url("https://excalidraw.com/Virgil.woff2");
      }
      @font-face {
        font-family: "Cascadia";
        src: url("https://excalidraw.com/Cascadia.woff2");
      }
      @font-face {
        font-family: "Assistant";
        src: url("https://excalidraw.com/Assistant-Regular.woff2");
      }
    </style>
    
  </defs>
  <rect x="0" y="0" width="713.546875" height="468.9921875" fill="#ffffff"></rect><g transform="translate(36.6328125 322.5078125) rotate(0 33.41996765136719 12.5)"><text x="0" y="17.52" font-family="Virgil, Segoe UI Emoji" font-size="20px" fill="#2f9e44" text-anchor="start" style="white-space: pre;" direction="ltr" dominant-baseline="alphabetic">Router</text></g><g stroke-linecap="round"><g transform="translate(135.21484375 336.04296875) rotate(0 44.6171875 -0.7578125)"><path d="M-0.83 -1.06 C3.01 -1.56, 7.81 -2.07, 22.75 -2.08 C37.69 -2.09, 77.62 -1.31, 88.81 -1.13 M0.94 1 C5.19 0.57, 10.63 -0.73, 25.11 -0.84 C39.59 -0.95, 76.93 0.16, 87.82 0.36" stroke="#2f9e44" stroke-width="1" fill="none"></path></g><g transform="translate(135.21484375 336.04296875) rotate(0 44.6171875 -0.7578125)"><path d="M64.13 8.35 C68.89 5.15, 76.29 3.36, 87.82 0.36 M64.13 8.35 C71.78 5.19, 78.91 2.69, 87.82 0.36" stroke="#2f9e44" stroke-width="1" fill="none"></path></g><g transform="translate(135.21484375 336.04296875) rotate(0 44.6171875 -0.7578125)"><path d="M64.54 -8.74 C69.32 -7.19, 76.61 -4.23, 87.82 0.36 M64.54 -8.74 C72.14 -6.32, 79.14 -3.23, 87.82 0.36" stroke="#2f9e44" stroke-width="1" fill="none"></path></g></g><mask></mask><g transform="translate(237.546875 319.08203125) rotate(0 16.41998291015625 12.5)"><text x="0" y="17.52" font-family="Virgil, Segoe UI Emoji" font-size="20px" fill="#1e1e1e" text-anchor="start" style="white-space: pre;" direction="ltr" dominant-baseline="alphabetic">App</text></g><g stroke-linecap="round"><g transform="translate(287.66796875 278.85546875) rotate(0 0.08984375 58.24609375)"><path d="M-0.05 -0.65 C-0.05 18.41, -0.34 96.14, -0.19 115.51 M-1.54 1.62 C-1.7 21.31, -1.66 97.39, -1.33 116.54" stroke="#2f9e44" stroke-width="1" fill="none"></path></g></g><mask></mask><g stroke-linecap="round"><g transform="translate(286.453125 285.7578125) rotate(0 12.1484375 0.2890625)"><path d="M0.12 -0.18 C4.22 -0.06, 20.37 0.69, 24.46 0.8 M-0.48 -0.75 C3.57 -0.8, 19.95 -0.35, 24.12 -0.04" stroke="#2f9e44" stroke-width="1" fill="none"></path></g></g><mask></mask><g stroke-linecap="round"><g transform="translate(289.3984375 387.95703125) rotate(0 11.3203125 0.2421875)"><path d="M0.05 -0.32 C3.69 -0.3, 18.34 -0.09, 22.15 0 M-0.58 0.71 C3.19 0.79, 19.25 0.46, 23.13 0.45" stroke="#2f9e44" stroke-width="1" fill="none"></path></g></g><mask></mask><g transform="translate(321.64453125 271.6953125) rotate(0 71.01993560791016 12.5)"><text x="0" y="17.52" font-family="Virgil, Segoe UI Emoji" font-size="20px" fill="#1e1e1e" text-anchor="start" style="white-space: pre;" direction="ltr" dominant-baseline="alphabetic">PodcastDetail</text></g><g transform="translate(325.21484375 372.7734375) rotate(0 59.86994171142578 12.5)"><text x="0" y="17.52" font-family="Virgil, Segoe UI Emoji" font-size="20px" fill="#2f9e44" text-anchor="start" style="white-space: pre;" direction="ltr" dominant-baseline="alphabetic">PodcastList</text></g><g stroke-linecap="round"><g transform="translate(472.6484375 244.44921875) rotate(0 -0.095703125 38.375)"><path d="M-1.12 0.21 C-0.93 12.78, 0.76 62.91, 0.77 75.73 M0.5 -0.72 C0.65 11.94, 0.18 64.11, 0.33 76.73" stroke="#2f9e44" stroke-width="1" fill="none"></path></g></g><mask></mask><g transform="translate(503.9453125 241.01171875) rotate(0 55.24993896484375 12.5)"><text x="55.24993896484375" y="17.52" font-family="Virgil, Segoe UI Emoji" font-size="20px" fill="#2f9e44" text-anchor="middle" style="white-space: pre;" direction="ltr" dominant-baseline="alphabetic">EpisodeList</text></g><g stroke-linecap="round"><g transform="translate(477.640625 250.765625) rotate(0 7.173828125 0.32421875)"><path d="M-0.11 0.23 C2.27 0.23, 11.91 0.33, 14.37 0.34 M0.83 -0.13 C3.14 -0.1, 11.69 0.74, 13.96 0.88" stroke="#2f9e44" stroke-width="1" fill="none"></path></g></g><mask></mask><g stroke-linecap="round"><g transform="translate(475.359375 313.45703125) rotate(0 12.916015625 -0.310546875)"><path d="M-0.26 0.49 C4.02 0.46, 20.9 -0.09, 25.32 -0.31 M0.61 0.27 C5.08 0.09, 22.03 -1.01, 26.29 -1.12" stroke="#2f9e44" stroke-width="1" fill="none"></path></g></g><mask></mask><g transform="translate(516.29296875 303.5390625) rotate(0 66.39993286132812 12.5)"><text x="0" y="17.52" font-family="Virgil, Segoe UI Emoji" font-size="20px" fill="#2f9e44" text-anchor="start" style="white-space: pre;" direction="ltr" dominant-baseline="alphabetic">EpisodeDetail</text></g><g stroke-linecap="round"><g transform="translate(457.765625 352.81640625) rotate(0 0.515625 46.419921875)"><path d="M0.66 -0.63 C0.86 14.85, 0.07 77.61, 0.3 93.29 M-0.45 1.65 C0.22 16.72, 2.25 76.44, 2.62 91.41" stroke="#2f9e44" stroke-width="1" fill="none"></path></g></g><mask></mask><g stroke-linecap="round"><g transform="translate(465.6484375 363.4140625) rotate(0 9.78125 0.15234375)"><path d="M-0.4 0.18 C2.85 0.19, 16.74 0.28, 20.03 0.21 M0.39 -0.21 C3.57 -0.12, 16.76 0.81, 19.84 0.86" stroke="#2f9e44" stroke-width="1" fill="none"></path></g></g><mask></mask><g stroke-linecap="round"><g transform="translate(469.79296875 430.2265625) rotate(0 11.54296875 0.703125)"><path d="M-0.25 0.54 C3.73 0.68, 19.47 0.83, 23.44 1.04 M0.63 0.34 C4.6 0.52, 19.39 1.45, 23.19 1.55" stroke="#2f9e44" stroke-width="1" fill="none"></path></g></g><mask></mask><g transform="translate(526.96875 420.45703125) rotate(0 73.08993530273438 12.5)"><text x="0" y="17.52" font-family="Virgil, Segoe UI Emoji" font-size="20px" fill="#1971c2" text-anchor="start" style="white-space: pre;" direction="ltr" dominant-baseline="alphabetic">PodcastSearch</text></g><g stroke-linecap="round" transform="translate(291.4609375 72.2890625) rotate(0 93.00585937500006 18.61328125)"><path d="M9.31 0 C69.24 -0.52, 130.79 -0.06, 176.71 0 M9.31 0 C58.45 -0.23, 109.04 -0.97, 176.71 0 M176.71 0 C182.88 -1, 185.41 2.96, 186.01 9.31 M176.71 0 C181.2 1.29, 185.58 2.61, 186.01 9.31 M186.01 9.31 C185.93 13.54, 187.2 20.41, 186.01 27.92 M186.01 9.31 C186.26 15.5, 185.8 20.64, 186.01 27.92 M186.01 27.92 C185.95 33.35, 181.27 35.84, 176.71 37.23 M186.01 27.92 C186.88 31.99, 181.76 37, 176.71 37.23 M176.71 37.23 C143.94 38.61, 107.24 38.26, 9.31 37.23 M176.71 37.23 C133.73 37.54, 92.58 37.89, 9.31 37.23 M9.31 37.23 C4.4 35.85, -0.46 33.51, 0 27.92 M9.31 37.23 C3.75 36.96, 1.49 33.51, 0 27.92 M0 27.92 C-0.68 22.53, -0.28 20.43, 0 9.31 M0 27.92 C-0.61 20.37, 0.86 13.97, 0 9.31 M0 9.31 C1.01 3.55, 3.17 -1.98, 9.31 0 M0 9.31 C2 3.01, 2.52 0.05, 9.31 0" stroke="#2f9e44" stroke-width="1" fill="none"></path></g><g transform="translate(320.71875 76.81640625) rotate(0 68.15994262695312 12.5)"><text x="68.15994262695312" y="17.52" font-family="Virgil, Segoe UI Emoji" font-size="20px" fill="#2f9e44" text-anchor="middle" style="white-space: pre;" direction="ltr" dominant-baseline="alphabetic">container view</text></g><g stroke-linecap="round" transform="translate(290.6015625 148.9375) rotate(0 100.416015625 21.578125)"><path d="M104.04 -0.54 C117.79 -0.8, 132.93 1.06, 145.86 2.48 C158.78 3.9, 172.74 5.58, 181.6 7.98 C190.45 10.37, 196.22 13.83, 198.99 16.83 C201.76 19.84, 201.91 23.05, 198.24 26.01 C194.56 28.97, 186.26 31.95, 176.94 34.62 C167.62 37.3, 155.7 40.48, 142.33 42.06 C128.96 43.63, 111.39 44.29, 96.71 44.08 C82.04 43.87, 67.12 42.4, 54.28 40.79 C41.45 39.19, 28.31 37.07, 19.7 34.46 C11.1 31.86, 5.48 28.2, 2.63 25.18 C-0.22 22.17, -0.72 19.2, 2.62 16.37 C5.97 13.54, 13.19 10.77, 22.68 8.19 C32.17 5.61, 44.79 2.2, 59.56 0.9 C74.33 -0.39, 101.29 0.3, 111.29 0.43 C121.3 0.55, 119.73 1.24, 119.61 1.65 M76.6 2.13 C89.95 0.67, 106.86 -1.18, 121.05 -1.04 C135.24 -0.9, 150.11 1.06, 161.75 2.99 C173.38 4.91, 184.47 7.63, 190.84 10.49 C197.21 13.35, 199.6 16.79, 199.95 20.17 C200.31 23.55, 198.78 27.66, 192.96 30.78 C187.14 33.9, 176.2 36.92, 165.01 38.91 C153.82 40.89, 139.96 42.08, 125.84 42.67 C111.72 43.26, 94.86 43.16, 80.3 42.44 C65.74 41.72, 50.11 40.3, 38.47 38.34 C26.84 36.39, 17.13 33.22, 10.48 30.69 C3.83 28.16, -0.95 25.96, -1.43 23.16 C-1.92 20.37, 1.48 17.01, 7.57 13.91 C13.65 10.8, 23.93 6.83, 35.1 4.55 C46.27 2.27, 67.48 0.76, 74.57 0.2 C81.66 -0.36, 77 1, 77.64 1.19" stroke="#1971c2" stroke-width="1" fill="none"></path></g><g transform="translate(341.32457733154297 155.9296875) rotate(0 47.81995391845703 12.5)"><text x="47.81995391845703" y="17.52" font-family="Virgil, Segoe UI Emoji" font-size="20px" fill="#1971c2" text-anchor="middle" style="white-space: pre;" direction="ltr" dominant-baseline="alphabetic">component</text></g><g stroke-linecap="round" transform="translate(10 318.23828125) rotate(0 58.583984375 16.08203125)"><path d="M8.04 0 C46.36 0.87, 81.86 2.18, 109.13 0 M8.04 0 C29.77 0.4, 50.85 0.29, 109.13 0 M109.13 0 C115.76 -1.88, 117.24 1.18, 117.17 8.04 M109.13 0 C112.76 1.34, 117.96 0.51, 117.17 8.04 M117.17 8.04 C118.28 13.82, 116.88 18.09, 117.17 24.12 M117.17 8.04 C116.54 13.85, 117.8 18.96, 117.17 24.12 M117.17 24.12 C115.46 28.87, 115.63 32.67, 109.13 32.16 M117.17 24.12 C119.31 30.31, 114.62 31.26, 109.13 32.16 M109.13 32.16 C87.04 32.81, 61.15 33.37, 8.04 32.16 M109.13 32.16 C73.87 31.34, 38.62 31.26, 8.04 32.16 M8.04 32.16 C3.65 32.81, 0.02 28.52, 0 24.12 M8.04 32.16 C2.31 31.1, -1.52 29.06, 0 24.12 M0 24.12 C-0.31 18.66, -0.26 13.49, 0 8.04 M0 24.12 C-0.13 20.14, 0.51 16.04, 0 8.04 M0 8.04 C0.71 4.39, 0.95 0.5, 8.04 0 M0 8.04 C-2.06 1.2, 4.73 -0.67, 8.04 0" stroke="#2f9e44" stroke-width="1" fill="none"></path></g><g stroke-linecap="round" transform="translate(230.9296875 307.78515625) rotate(0 24.03125 25.408203125)"><path d="M12.02 0 C20.55 -1.48, 31.15 -0.71, 36.05 0 M12.02 0 C18.43 0.66, 24.32 -0.03, 36.05 0 M36.05 0 C45.91 -1.75, 47.87 2.59, 48.06 12.02 M36.05 0 C41.98 1.74, 47.68 6.19, 48.06 12.02 M48.06 12.02 C46.26 21.1, 50.05 32.46, 48.06 38.8 M48.06 12.02 C47.57 16.6, 48.33 22.66, 48.06 38.8 M48.06 38.8 C47.89 45.22, 45.52 48.9, 36.05 50.82 M48.06 38.8 C47.17 46.23, 42.3 50.87, 36.05 50.82 M36.05 50.82 C29.02 50.79, 22.91 49.21, 12.02 50.82 M36.05 50.82 C28.08 50.2, 21.6 51.51, 12.02 50.82 M12.02 50.82 C2.63 52.02, 0.78 46.14, 0 38.8 M12.02 50.82 C2.84 50.63, 2.09 44.74, 0 38.8 M0 38.8 C-1.12 31.43, -0.64 25.4, 0 12.02 M0 38.8 C1.13 30.43, 0.62 20.43, 0 12.02 M0 12.02 C-1.16 5.7, 4.43 -1.46, 12.02 0 M0 12.02 C-0.31 2.23, 5.18 -1.81, 12.02 0" stroke="#1e1e1e" stroke-width="1" fill="none"></path></g><g stroke-linecap="round" transform="translate(315.68359375 265.1640625) rotate(0 76.4296875 17)"><path d="M8.5 0 C42.99 0.54, 73.94 -0.84, 144.36 0 M8.5 0 C56.16 -1.27, 102.01 -0.51, 144.36 0 M144.36 0 C151.88 1.12, 151.77 2.67, 152.86 8.5 M144.36 0 C148.48 -1.46, 153.38 4.22, 152.86 8.5 M152.86 8.5 C151.66 13.64, 152.11 17.44, 152.86 25.5 M152.86 8.5 C152.65 14.96, 152.76 21.05, 152.86 25.5 M152.86 25.5 C154.07 32.68, 151 33.49, 144.36 34 M152.86 25.5 C154.42 31.52, 151.08 35.61, 144.36 34 M144.36 34 C107.13 35.17, 73.5 34.72, 8.5 34 M144.36 34 C106.68 33.43, 70.26 32.65, 8.5 34 M8.5 34 C2.87 32.53, -0.58 29.22, 0 25.5 M8.5 34 C1.78 32.94, 1.5 31.86, 0 25.5 M0 25.5 C-1.31 21.3, 0.3 16.01, 0 8.5 M0 25.5 C-0.65 19.83, 0.02 12.88, 0 8.5 M0 8.5 C-1.7 2.46, 3.62 -0.36, 8.5 0 M0 8.5 C-1.76 0.94, 4.9 -0.24, 8.5 0" stroke="#1e1e1e" stroke-width="1" fill="none"></path></g><g stroke-linecap="round" transform="translate(496.17578125 240.33984375) rotate(0 62.28125 12.361328125)"><path d="M6.18 0 C39.18 1.52, 71.12 -0.04, 118.38 0 M6.18 0 C29.08 -0.88, 52.97 -0.15, 118.38 0 M118.38 0 C121.08 -1.21, 122.96 3.05, 124.56 6.18 M118.38 0 C123.66 -0.49, 122.44 1.55, 124.56 6.18 M124.56 6.18 C124.48 10.15, 125.26 14.76, 124.56 18.54 M124.56 6.18 C124.93 10.56, 124.16 14.38, 124.56 18.54 M124.56 18.54 C124.9 23.27, 123.23 26.36, 118.38 24.72 M124.56 18.54 C126.83 22.18, 121.36 26.45, 118.38 24.72 M118.38 24.72 C83.65 25.6, 50.86 24.84, 6.18 24.72 M118.38 24.72 C82.57 23.52, 47.75 24.85, 6.18 24.72 M6.18 24.72 C3.09 26.13, 0.28 22.84, 0 18.54 M6.18 24.72 C2.27 25.18, -0.73 21.15, 0 18.54 M0 18.54 C0.68 16.11, -1.09 11.97, 0 6.18 M0 18.54 C-0.29 15.64, 0.39 12.6, 0 6.18 M0 6.18 C-0.27 1.58, 0.77 -0.4, 6.18 0 M0 6.18 C1.58 2.28, 0.39 -1.2, 6.18 0" stroke="#2f9e44" stroke-width="1" fill="none"></path></g><g stroke-linecap="round" transform="translate(500.9921875 299.02734375) rotate(0 79.31640625 15.544921875)"><path d="M7.77 0 C39.19 1.27, 72.33 -1.02, 150.86 0 M7.77 0 C58.29 0.11, 108.44 0.55, 150.86 0 M150.86 0 C155.1 -0.92, 157.74 2.3, 158.63 7.77 M150.86 0 C155.7 2.11, 159.59 0.59, 158.63 7.77 M158.63 7.77 C159.76 11.17, 158.86 13.34, 158.63 23.32 M158.63 7.77 C158.24 12.64, 159.19 17.5, 158.63 23.32 M158.63 23.32 C159.18 29.05, 154.13 29.81, 150.86 31.09 M158.63 23.32 C159.77 28.69, 156.52 30.78, 150.86 31.09 M150.86 31.09 C104.33 32.24, 55.36 31.33, 7.77 31.09 M150.86 31.09 C97.74 32.42, 44.22 32.54, 7.77 31.09 M7.77 31.09 C0.87 30.67, 1.85 28.43, 0 23.32 M7.77 31.09 C4.1 32.67, -0.51 28.81, 0 23.32 M0 23.32 C1.01 21.68, -0.24 16.89, 0 7.77 M0 23.32 C0.31 19.9, 0.59 15.92, 0 7.77 M0 7.77 C0.08 4.32, 3.39 1.61, 7.77 0 M0 7.77 C-0.94 1.3, 0.66 -1.19, 7.77 0" stroke="#2f9e44" stroke-width="1" fill="none"></path></g><g transform="translate(302.47423940893236 20.604626251362788) rotate(0 83.03194003398096 9.977890033625613)"><text x="83.03194003398093" y="13.985010671129604" font-family="Virgil, Segoe UI Emoji" font-size="15.964624053800918px" fill="#1e1e1e" text-anchor="middle" style="white-space: pre;" direction="ltr" dominant-baseline="alphabetic">container view layout</text></g><g stroke-linecap="round" transform="translate(287.4609375 10) rotate(0 101.5390625 19.37737425436444)"><path d="M9.69 0 C65.7 -1.15, 123.72 -1.62, 193.39 0 M9.69 0 C48.34 1.96, 85.91 0.51, 193.39 0 M193.39 0 C199.94 -0.09, 202.89 2.71, 203.08 9.69 M193.39 0 C202.05 0.79, 202.13 2.25, 203.08 9.69 M203.08 9.69 C202.15 16.81, 201.48 24.09, 203.08 29.07 M203.08 9.69 C202.98 15.88, 203.93 21.15, 203.08 29.07 M203.08 29.07 C202.84 36.91, 198.49 38.37, 193.39 38.75 M203.08 29.07 C205.02 34.96, 199.53 40.32, 193.39 38.75 M193.39 38.75 C155.29 40.07, 116.63 39.61, 9.69 38.75 M193.39 38.75 C128.59 37.51, 64.92 38.47, 9.69 38.75 M9.69 38.75 C2.09 38.51, 1.56 34.46, 0 29.07 M9.69 38.75 C1.19 36.48, 1.4 33.8, 0 29.07 M0 29.07 C1.55 25.14, 0.83 18.63, 0 9.69 M0 29.07 C0.78 24.22, 0.05 18.89, 0 9.69 M0 9.69 C-1.05 4.67, 2.03 -0.08, 9.69 0 M0 9.69 C1.07 3.54, 1.78 1.97, 9.69 0" stroke="#1e1e1e" stroke-width="1" fill="none"></path></g><g transform="translate(540.625 351.98828125) rotate(0 63.50994110107422 12.5)"><text x="0" y="17.52" font-family="Virgil, Segoe UI Emoji" font-size="20px" fill="#1971c2" text-anchor="start" style="white-space: pre;" direction="ltr" dominant-baseline="alphabetic">PodcastItem</text></g><g stroke-linecap="round" transform="translate(495.1796875 345.93359375) rotate(0 104.18359375 19.888671875)"><path d="M145.61 1.69 C159.34 2.42, 173.1 3.87, 182.95 6.12 C192.81 8.36, 200.72 12.22, 204.75 15.17 C208.78 18.11, 210.09 21.01, 207.12 23.77 C204.16 26.53, 196.12 29.39, 186.97 31.73 C177.82 34.07, 165.49 36.46, 152.24 37.81 C138.99 39.16, 122.41 39.69, 107.48 39.82 C92.55 39.95, 76.29 39.58, 62.67 38.57 C49.05 37.55, 35.69 35.91, 25.76 33.73 C15.83 31.55, 7.02 28.42, 3.1 25.49 C-0.83 22.56, -0.81 19.14, 2.22 16.14 C5.25 13.13, 12.45 9.79, 21.28 7.46 C30.11 5.14, 41.97 3.53, 55.22 2.19 C68.46 0.84, 84.1 -0.73, 100.74 -0.61 C117.39 -0.5, 144.92 2.19, 155.09 2.88 C165.26 3.57, 162.56 3.27, 161.78 3.52 M91.96 -1.07 C105.8 -1.62, 124.14 0.9, 138.68 1.88 C153.22 2.86, 168.64 2.89, 179.2 4.82 C189.75 6.75, 197.15 10.38, 202.02 13.47 C206.89 16.55, 210.09 20.67, 208.42 23.31 C206.76 25.95, 200.16 27.27, 192.02 29.31 C183.88 31.36, 172.42 33.61, 159.6 35.58 C146.78 37.55, 130.04 40.82, 115.11 41.13 C100.18 41.44, 84.34 38.8, 70.02 37.44 C55.7 36.09, 39.75 34.81, 29.2 33.01 C18.66 31.21, 11.61 29.36, 6.76 26.62 C1.91 23.88, -1.37 19.39, 0.11 16.58 C1.6 13.78, 7.31 11.92, 15.67 9.78 C24.02 7.63, 37.14 5.08, 50.26 3.7 C63.37 2.33, 87.21 2.22, 94.37 1.52 C101.54 0.83, 93.44 -0.52, 93.28 -0.46" stroke="#1971c2" stroke-width="1" fill="none"></path></g><g stroke-linecap="round" transform="translate(491.66796875 406.09375) rotate(0 104.23828125 26.44921875)"><path d="M122.9 -0.03 C137.24 0.21, 154.29 3.03, 166.5 5.45 C178.72 7.86, 189.04 11.1, 196.17 14.44 C203.3 17.79, 208.66 21.63, 209.28 25.52 C209.9 29.41, 205.95 34.44, 199.9 37.8 C193.85 41.16, 184.33 43.39, 172.98 45.68 C161.64 47.96, 146.54 50.42, 131.82 51.52 C117.11 52.63, 99.5 52.88, 84.69 52.29 C69.88 51.71, 55.23 50.39, 42.97 48.01 C30.71 45.62, 18.16 41.5, 11.11 38 C4.07 34.5, 1.05 30.83, 0.7 27.01 C0.35 23.18, 3.08 18.34, 9.01 15.04 C14.95 11.74, 24.83 9.46, 36.33 7.21 C47.82 4.95, 62.61 2.54, 77.98 1.51 C93.34 0.47, 119.17 1.11, 128.51 1 C137.85 0.88, 134.16 0.25, 133.99 0.8 M145.92 3.47 C159.97 4.96, 175.9 7.9, 185.64 10.55 C195.38 13.2, 200.92 15.75, 204.34 19.36 C207.77 22.97, 209.14 28.33, 206.19 32.22 C203.25 36.11, 195.87 39.63, 186.66 42.71 C177.45 45.79, 164.12 48.91, 150.92 50.7 C137.73 52.48, 122.45 53.3, 107.5 53.42 C92.55 53.54, 75.16 53.28, 61.22 51.4 C47.27 49.53, 33.43 45.44, 23.83 42.17 C14.23 38.91, 7.36 35.13, 3.6 31.82 C-0.16 28.51, -1.73 25.83, 1.25 22.32 C4.23 18.81, 11.97 13.9, 21.48 10.76 C30.99 7.63, 44.85 5.24, 58.31 3.52 C71.76 1.79, 87.29 0.48, 102.22 0.41 C117.16 0.34, 140.52 2.85, 147.94 3.09 C155.36 3.34, 147.36 1.48, 146.75 1.88" stroke="#1971c2" stroke-width="1" fill="none"></path></g><g stroke-linecap="round" transform="translate(317.58984375 366.03125) rotate(0 68 19.19140625)"><path d="M9.6 0 C43.73 -2.3, 78.84 0.62, 126.4 0 M9.6 0 C36.23 -0.7, 61.77 -0.45, 126.4 0 M126.4 0 C134.41 0.91, 136.69 5, 136 9.6 M126.4 0 C132.45 1.08, 135.14 1.7, 136 9.6 M136 9.6 C134.43 15.54, 134.3 18.19, 136 28.79 M136 9.6 C136.93 14.92, 135.5 21.21, 136 28.79 M136 28.79 C135.29 33.3, 134.64 39.99, 126.4 38.38 M136 28.79 C136.77 35.55, 130.63 36.29, 126.4 38.38 M126.4 38.38 C83.28 40.83, 41.68 39.64, 9.6 38.38 M126.4 38.38 C95.14 38.94, 63.61 38.39, 9.6 38.38 M9.6 38.38 C1.8 38.54, 1.68 35.82, 0 28.79 M9.6 38.38 C1.62 40.49, 2.27 33.72, 0 28.79 M0 28.79 C-0.71 23, -0.91 18.73, 0 9.6 M0 28.79 C-0.67 21.46, 0.82 14.43, 0 9.6 M0 9.6 C1.54 2.4, 2.48 1.22, 9.6 0 M0 9.6 C-0.91 3.74, 3.84 -1.73, 9.6 0" stroke="#2f9e44" stroke-width="1" fill="none"></path></g></svg>